<?xml version="1.0" encoding="utf-8"?>
<!-- Uploaded to: SVG Repo, www.svgrepo.com, Generator: SVG Repo Mixer Tools -->
<svg xmlns="http://www.w3.org/2000/svg" xmlns:xlink="http://www.w3.org/1999/xlink" version="1.1" id="upload"  viewBox="0 0 210.8799 200.1777" enable-background="new 0 0 210.8799 200.1777" xml:space="preserve" width="512" height="512">
<g>
	<polygon fill="#D0E8FF" points="184,176.1777 24,176.1777 24,148.1777 8,148.1777 8,192.1777 200,192.1777 200,148.1777    184,148.1777  "/>
	<polygon fill="#1C71DA" points="103.8711,40.3848 103.5898,40.1035 103.3086,40.3848  "/>
	<path fill="#1C71DA" d="M176,140.1777v28H32v-28H0v60h208v-60H176z M200,192.1777H8v-44h16v28h160v-28h16V192.1777z"/>
	<path fill="#1C71DA" d="M79.9336,63.7637L100,43.6938v104.4839h8V44.5146l20.0664,20.0693   c0.7812,0.7813,1.8047,1.1719,2.8281,1.1719s2.0469-0.3906,2.8281-1.1719c1.5625-1.5625,1.5625-4.0937,0-5.6562L106.418,31.6191   c-1.5-1.5-4.1562-1.5-5.6562,0L74.2773,58.1074c-1.5625,1.5625-1.5625,4.0938,0,5.6562S78.3711,65.3262,79.9336,63.7637z    M103.8711,40.3848h-0.5625l0.2812-0.2812L103.8711,40.3848z"/>
</g>
<path fill="#FF5D5D" d="M28.252,64c-1.0234,0-2.0479-0.3906-2.8281-1.1719c-1.5625-1.5615-1.5625-4.0947,0-5.6562l14.1426-14.1416  c1.5625-1.5625,4.0957-1.5625,5.6562,0c1.5625,1.5615,1.5625,4.0947,0,5.6562L31.0801,62.8281C30.2988,63.6094,29.2754,64,28.252,64  z"/>
<path fill="#FF5D5D" d="M42.3945,64c-1.0234,0-2.0479-0.3906-2.8281-1.1719L25.4238,48.6855c-1.5625-1.5615-1.5625-4.0947,0-5.6562  c1.5605-1.5625,4.0957-1.5625,5.6562,0l14.1426,14.1426c1.5625,1.5615,1.5625,4.0947,0,5.6562C44.4424,63.6094,43.418,64,42.3945,64  z"/>
<path fill="#00D40B" d="M150.252,140c-7.7197,0-14-6.2803-14-14s6.2803-14,14-14s14,6.2803,14,14S157.9717,140,150.252,140z   M150.252,120c-3.3086,0-6,2.6914-6,6s2.6914,6,6,6s6-2.6914,6-6S153.5605,120,150.252,120z"/>
<path fill="#FFC504" d="M195.5664,30.627c-1.0234,0-2.0469-0.3906-2.8281-1.1719l-11.3145-11.3135  c-0.75-0.75-1.1719-1.7676-1.1719-2.8281s0.4219-2.0781,1.1719-2.8281l11.3145-11.3135c1.5625-1.5625,4.0938-1.5625,5.6562,0  l11.3135,11.3135c1.5625,1.5615,1.5625,4.0947,0,5.6562l-11.3135,11.3135C197.6143,30.2363,196.5898,30.627,195.5664,30.627z   M189.9092,15.3135l5.6572,5.6572l5.6562-5.6572l-5.6562-5.6572L189.9092,15.3135z"/>
</svg>